<?xml version="1.0" encoding="utf-8"?>
<!-- Generator: Adobe Illustrator 23.0.2, SVG Export Plug-In . SVG Version: 6.00 Build 0)  -->
<svg version="1.1" id="Layer_1" xmlns="http://www.w3.org/2000/svg" xmlns:xlink="http://www.w3.org/1999/xlink" x="0px" y="0px"
	 viewBox="0 0 100 100" style="enable-background:new 0 0 100 100;" xml:space="preserve">
<path d="M27.4,51.5c-12.6,12.3-15.8,33.8-7.6,40.6c4.4,3.6,12.4,3.3,17.2,3.1c6.7-0.3,7.6-2,14-1.8c7.5,0.1,8.3,2.4,15.3,2.5
	c3.4,0,10.8,0,15.3-4.3c5.6-5.4,3.9-14.7,3.2-18.5c-2.2-12-12.2-30.3-30.5-32C40.4,39.8,30.3,48.6,27.4,51.5z"/>
<path d="M2.9,31.8c-3.6,7.2,4.3,19.6,12.7,19.7c3.5,0.1,7.1-2,8.9-4.9c4-6.4-2.2-14.3-2.5-14.8c-1.2-1.4-4.7-5.8-10.2-5.5
	C8,26.5,4.4,28.8,2.9,31.8z"/>
<path d="M27.3,11.3c-4,8.1-0.3,19.9,7.6,23.4c0.9,0.4,4.3,1.9,7.6,0.6c6.8-2.7,8.7-15.5,4.5-24c-0.9-1.8-3.8-7.6-8.9-8
	C33,2.9,28.9,8,27.3,11.3z"/>
<path d="M60.3,6.9c-7.7,7.3-7.4,23,0,27.7c0.2,0.1,3.6,2.2,7.6,1.2c6.5-1.6,9.2-10.1,9.5-15.4c0.4-6.7-2.4-16.1-8.3-17.2
	C65,2.4,61.1,6.1,60.3,6.9z"/>
<path d="M80.5,30C75,34.6,72.8,44.3,78,49.1c4.3,3.9,12.1,3.1,16.5-0.6c6.5-5.5,5.6-17.5-0.6-20.9C89.8,25.2,83.9,27.2,80.5,30z"/>
</svg>
