<?xml version="1.0" encoding="utf-8"?>
<!-- Generator: Adobe Illustrator 23.0.2, SVG Export Plug-In . SVG Version: 6.00 Build 0)  -->
<svg version="1.1" id="Layer_1" xmlns="http://www.w3.org/2000/svg" xmlns:xlink="http://www.w3.org/1999/xlink" x="0px" y="0px"
	 viewBox="0 0 1400 600" style="enable-background:new 0 0 1400 600;" xml:space="preserve">
<path d="M213.3,270.5c-7.9-0.3-14.4-1.2-19.1-2c-0.6,8.3-1.4,19.2-2,32.1c-0.7,14.3-1.1,22-1.1,31.9c0,22.2-0.4,44.4-0.4,66.6
	c0,5.5-1.6,10.2-4.8,14s-7.2,5.7-12,5.7c-4.9,0-9-1.9-12.2-5.7c-3.2-3.8-4.8-8.5-4.8-14V338c0-20.3,1.1-48.9,3.3-85.8
	c2.5-39.9,3.8-68.6,4.1-85.8v-28.6c0-13.7,0.7-23.6,2.2-29.9c2.8-12.2,8.9-17.4,18.1-15.8c4.1-1.1,9.8-2.4,16.8-3.1
	c3.8-0.4,15.1-1.2,30.8,2c12.4,2.5,34.6,7,55.2,25.1c5.6,4.9,18.4,16.4,26.1,36.1c1.5,3.9,5.9,15.9,6,32.1c0.1,8.6,0,24-9,40.1
	c-5.7,10.2-12.6,16.3-18.1,21.1c-12.2,10.7-24.1,16-29.1,18C243.5,271.5,226,271,213.3,270.5z M224.1,127.4
	c-5.4,0-10.3,0.1-14.5,0.4s-7.9,0.7-10.8,1.2l-0.4,38.1c-1,21.4-2.1,42.8-3.1,64.2c7,2.8,22.8,7.8,42.1,4c6.7-1.3,25-5,38.1-21.1
	c3.1-3.8,11.7-14.7,12-30.1c0.2-7.6-1.8-13.5-3-17c-1.8-5.3-6.2-15.6-16.3-24.5C256.3,132.1,243.4,127.4,224.1,127.4z"/>
<path d="M609.8,276.4c-7.2,33.9-16.7,72.2-28.4,114.9c-2.6,9.5-6.9,19.2-12.9,29.2c-3.2,5.5-7.7,8.2-13.2,8.1
	c-10.1-0.2-18-14.3-23.6-42.3c-1.9-8.9-3.8-21.1-5.7-36.5l-4.6-34.8L510,344.8l-21.1,64.4c-1.2,3.9-3,7-5.3,9
	c-2.8,6-7.2,9.1-13.3,9.4c-7,0.3-13.9-15.2-20.4-46.5c-3.3-16.1-6.7-37.9-10-65.5l-3.3-23.4c-1.2-9.4-1.8-17.2-1.8-23.5
	c0-4.4,1.4-8,4.1-10.8c2.7-2.9,6-4.3,9.9-4.3c7,0,11.4,4.3,13.1,12.9c1.2,6.1,2.2,13.7,2.9,22.8l2.1,22.9l8.2,70
	c10.3-32,20.9-68.9,32-110.7c3.1-11.5,8.4-17.3,16-17.3c7.3,0,12.3,6.4,14.9,19.3c2.4,12.2,5.4,30.9,9,56.1
	c3.7,26.2,7,46.6,9.9,61.3l10.2-42.4l17.9-85c1.4-6.3,5.4-9.5,12-9.5c3.9,0,7.3,1.5,10.2,4.4c2.9,3,4.3,6.5,4.3,10.7
	C611.2,269.7,610.7,272.1,609.8,276.4z"/>
<path d="M899.7,277.4c-7.2,33.9-16.7,72.2-28.4,114.9c-2.6,9.5-6.9,19.2-12.9,29.2c-3.2,5.5-7.7,8.2-13.2,8.1
	c-10.1-0.2-18-14.3-23.6-42.3c-1.9-8.9-3.8-21.1-5.7-36.5l-4.6-34.8l-11.4,29.8l-21.1,64.4c-1.2,3.9-3,7-5.3,9
	c-2.8,6-7.2,9.1-13.3,9.4c-7,0.3-13.9-15.2-20.4-46.5c-3.3-16.1-6.7-37.9-10-65.5l-3.3-23.4c-1.2-9.4-1.8-17.2-1.8-23.5
	c0-4.4,1.4-8,4.1-10.8c2.7-2.9,6-4.3,9.9-4.3c7,0,11.4,4.3,13.1,12.9c1.2,6.1,2.2,13.7,2.9,22.8l2.1,22.9l8.2,70
	c10.3-32,20.9-68.9,32-110.7c3.1-11.5,8.4-17.3,16-17.3c7.3,0,12.3,6.4,14.9,19.3c2.4,12.2,5.4,30.9,9,56.1
	c3.7,26.2,7,46.6,9.9,61.3l10.2-42.4l17.9-85c1.4-6.3,5.4-9.5,12-9.5c3.9,0,7.3,1.5,10.2,4.4c2.9,3,4.3,6.5,4.3,10.7
	C901.1,270.7,900.6,273.1,899.7,277.4z"/>
<path d="M1026.6,426.2c-1.8,0-5-2.3-9.6-6.9c-4.2-4.3-7.3-8.1-9.3-11.4c-8.9,5.4-16.7,9.5-23.5,12.2c-6.8,2.8-12.4,4.1-17,4.1
	c-21.7,0-37.5-6.9-47.4-20.6c-9.4-12.9-14-32.6-14-59.3c0-25.2,7.7-46.7,23.1-64.6c15.4-17.9,33.9-26.8,55.3-26.8
	c8.1,0,17.1,2.3,27.1,7c12.6,5.8,18.9,12.8,18.9,21.1c0,2.8-0.9,5.3-2.8,7.5c-0.9,3.9-1.7,10.4-2.2,19.5c-0.5,9-0.8,20.6-0.9,34.8
	c-0.1,12.9,0.7,23.1,2.4,30.6c0.9,4.6,3.8,13.7,8.8,27.4c0.6,1.9,1.7,4.6,3.2,8.3l0.8,2.7c0,4.2-1.3,7.6-3.9,10.3
	C1033.1,424.9,1030.1,426.2,1026.6,426.2z M997.7,317.9c0-4.5,0.3-9.3,0.8-14.6c0.5-5.2,1.3-10.8,2.3-16.8c-3.4-2-6.4-3.4-8.8-4.4
	c-2.5-0.9-4.4-1.4-5.9-1.4c-14.4,0-26.8,6.6-37.2,19.7c-10.4,13.2-15.6,28.3-15.6,45.5c0,17.1,2.7,29.8,8.1,38.4
	c5.4,8.5,13.4,12.8,24.2,12.8c8.9,0,16.5-1.8,22.7-5.5c3.3-2,8-5.9,14-11.8C999.2,352.2,997.7,331.6,997.7,317.9z"/>
<path d="M1092.1,293.4l-2.1,77.5c0,8.2-0.4,20.3-1.1,36.2c-0.9,10.4-5.5,15.6-13.6,15.6c-9.1,0-13.6-5.3-13.6-15.9
	c0-12.6,0.5-31.5,1.5-56.7s1.5-44.1,1.5-56.7c0-16.4,0.2-35.2,0.7-56.4s0.7-39.9,0.7-56.4c0-10.4,4.5-15.6,13.6-15.6
	c9.2,0,13.8,5.2,13.8,15.6c0,16.4-0.2,35.2-0.7,56.4S1092.1,277,1092.1,293.4z"/>
<path d="M1236.5,422.3c-5.1,0-9-3-11.8-9c-4.8-10.5-12.1-22.9-21.8-37.3l-24.6-37.6c-5.4,4.8-13.7,11.5-25,20.1
	c-1,16.1-1.5,31.8-1.5,47.1c0,4.7-1.3,8.5-3.8,11.4s-5.8,4.4-9.8,4.4c-9.4,0-14-7.1-14-21.2c0-8.6,0.5-21.5,1.6-38.8
	c1.1-17.2,1.6-30.1,1.6-38.8c0-15.8,0.2-33.9,0.6-54.2s0.6-38.3,0.6-53.9c0-4.7-0.2-10.2-0.6-16.5s-0.6-11.8-0.6-16.5
	s1.3-8.5,3.8-11.4s5.8-4.4,9.8-4.4s7.3,1.5,9.8,4.4s3.8,6.7,3.8,11.4c0,4.8,0.2,10.4,0.7,16.9s0.7,12.1,0.7,16.9l-1,50.2
	c-0.5,18.1-0.6,36.2-0.4,54.3c12.6-10.8,24.8-22.7,36.4-35.5l30.6-35.4c3.1-3.5,6.3-5.3,9.9-5.3s6.9,1.6,9.8,4.8s4.4,7,4.4,11.2
	c0,3.5-1.3,7-4,10.4c-11.4,15-25.4,31-42.1,48.2l30.3,46.3c14.2,21.7,21.3,35.9,21.3,42.4c0,4.2-1.5,7.7-4.4,10.8
	C1243.7,420.8,1240.3,422.3,1236.5,422.3z"/>
<path d="M1367.3,295.9c-5.1,0-8.7-1.9-10.7-5.8c-1.4-2.7-2.6-8.3-3.6-16.8c-6.9,2-17.7,5.6-32.1,10.9c-14.9,6.7-22.4,14.9-22.5,24.6
	c2.8,1.1,5.5,2,8.2,2.5c21.3,4.3,37.2,10.1,47.6,17.6c15.1,10.9,22.7,26.7,22.7,47.4c0,16.9-6.5,29.7-19.6,38.4
	c-10.8,7.1-24.6,10.6-41.2,10.6c-12.1,0-23.7-2.3-34.8-6.9c-14.3-5.8-21.4-13.9-21.4-24.3c0-4.2,1.5-7.8,4.4-10.9s6.2-4.7,9.9-4.7
	c2.9,0,6.6,2.5,11.1,7.5c2.2,2.4,7.2,4.4,15,5.9c6.2,1.3,11.4,1.9,15.7,1.9c7.8,0,14.6-1,20.6-3.1c8.6-3,12.9-7.8,12.9-14.3
	c0-14.1-8.8-23.7-26.4-28.7l-14.5-3.6c-12.3-3-21.1-6.6-26.3-10.6c-7.5-5.8-11.3-14.6-11.3-26.4c0-21.7,9.1-37.2,27.4-46.5
	c5.6-2.8,14.5-6.2,26.7-10.1c12.2-3.9,21-7.2,26.3-9.9c3.8-1.9,7.9-2.8,12.4-2.8c4,0,7.3,1.5,9.8,4.4s3.8,6.7,3.8,11.4
	c0,3,0.6,7.4,1.7,13.3c1.2,5.8,1.7,10.2,1.7,13.3c0,4.7-1.3,8.5-3.8,11.4C1374.6,294.4,1371.3,295.9,1367.3,295.9z"/>
<path d="M294.9,340.6c-23.6,23-29.7,63.4-14.3,76c8.2,6.8,23.3,6.1,32.2,5.8c12.5-0.6,14.2-3.7,26.2-3.5c14.1,0.2,15.5,4.6,28.6,4.6
	c6.4,0,20.2,0.1,28.6-8.1c10.4-10.1,7.3-27.4,6-34.6c-4.1-22.6-22.9-56.8-57.2-59.9C319.2,318.7,300.3,335.3,294.9,340.6z"/>
<path d="M249,303.9c-6.7,13.6,8,36.6,23.8,36.9c6.6,0.1,13.3-3.8,16.7-9.2c7.6-12.1-4.1-26.8-4.8-27.6c-2.2-2.7-8.8-10.8-19.1-10.4
	C258.5,293.9,251.8,298.3,249,303.9z"/>
<path d="M294.6,265.5c-7.5,15.1-0.6,37.2,14.3,43.8c1.8,0.8,8.1,3.6,14.3,1.2c12.8-5,16.3-29,8.3-44.9c-1.7-3.3-7.1-14.2-16.7-15
	C305.4,249.8,297.7,259.3,294.6,265.5z"/>
<path d="M356.5,257.3c-14.4,13.7-13.8,43,0,51.8c0.3,0.2,6.8,4.2,14.3,2.3c12.2-3,17.2-18.9,17.9-28.8c0.8-12.6-4.5-30.1-15.5-32.2
	C365.4,248.9,358.1,255.8,356.5,257.3z"/>
<path d="M394.5,300.5c-10.4,8.7-14.5,26.8-4.8,35.7c8,7.3,22.7,5.9,31-1.2c12.2-10.4,10.4-32.8-1.2-39.2
	C411.7,291.6,400.8,295.2,394.5,300.5z"/>
</svg>
